<svg id="Capa_1" enable-background="new 0 0 512 512" height="512" viewBox="0 0 512 512" width="512" xmlns="http://www.w3.org/2000/svg"><g><path d="m511.993 257.88c-.993 138.015-111.2 250.062-248.493 254.012-.178.005-.369-.029-.57-.096-4.451-1.488-9.41-1.488-13.861 0-.201.067-.392.101-.57.096-137.915-3.968-248.499-117.016-248.499-255.892 0-141.385 114.615-256 255.999-256 141.77 0 257.014 116.114 255.994 257.88z" fill="#76b6fa"/><path d="m128.551 307.642h-70c-8.284 0-15-6.716-15-15s6.716-15 15-15h70c8.284 0 15 6.716 15 15s-6.715 15-15 15zm-50.273-74.015h40c8.284 0 15-6.716 15-15s-6.716-15-15-15h-40c-8.284 0-15 6.716-15 15s6.716 15 15 15zm115.279 191.208h-40c-8.284 0-15 6.716-15 15s6.716 15 15 15h40c8.284 0 15-6.716 15-15s-6.716-15-15-15zm237.319-61.369h-40c-8.284 0-15 6.716-15 15s6.716 15 15 15h40c8.284 0 15-6.716 15-15s-6.716-15-15-15zm22.573-175.928h-5v-5c0-8.285-6.716-15-15-15h-30c-8.284 0-15 6.715-15 15v5h-5c-8.284 0-15 6.715-15 15 0 8.284 6.716 15 15 15h70c8.284 0 15-6.716 15-15 0-8.285-6.716-15-15-15zm-19.727 75.104h-40c-8.284 0-15 6.716-15 15s6.716 15 15 15h40c8.284 0 15-6.716 15-15s-6.715-15-15-15z" fill="#a7d0fc"/><path d="m413.722 111.027v238.973h-315.444v-238.973l157.722-105.148z" fill="#ffd993"/><path d="m256 43.322 157.722 105.148v201.53h-285.75v-221.325z" fill="#ffe7c0"/><path d="m448.353 135.734c-1.445 2.168-3.824 3.341-6.247 3.341-1.43 0-2.875-.408-4.153-1.261l-181.953-121.3-181.952 121.301c-3.445 2.299-8.102 1.367-10.4-2.08-2.298-3.446-1.367-8.103 2.08-10.4l186.112-124.075c2.52-1.68 5.801-1.68 8.32 0l186.112 124.074c3.447 2.298 4.378 6.954 2.081 10.4z" fill="#fb5858"/><path d="m365.876 339.276h-78c-5.523 0-10-4.477-10-10v-159.276c0-5.523 4.477-10 10-10h78c5.523 0 10 4.477 10 10v159.276c0 5.523-4.477 10-10 10z" fill="#ffcd71"/><path d="m383.206 413.967c-.748 28.256-13.967 53.451-37.478 65.593-23.512 12.143-51.708 8.337-75.181-7.41.748-28.256 13.967-53.451 37.478-65.593s51.708-8.337 75.181 7.41z" fill="#1ab975"/><path d="m351.459 439.24-87.959 45.427v27.215c-2.492.072-4.991.118-7.5.118s-5.008-.046-7.5-.118v-98.628l-86.991-69.673c-3.233-2.589-3.755-7.31-1.166-10.542 2.59-3.233 7.309-3.755 10.542-1.166l85.115 68.17 85.114-68.17c3.233-2.589 7.953-2.067 10.542 1.166s2.067 7.953-1.166 10.542l-86.99 69.673v54.531l81.076-41.872c3.679-1.9 8.205-.458 10.105 3.222 1.901 3.68.459 8.205-3.222 10.105z" fill="#169b62"/><path d="m135.471 267.255v-97.255c0-5.523 4.477-10 10-10h58.56c5.523 0 10 4.477 10 10v97.255c0 5.523-4.477 10-10 10h-58.56c-5.522 0-10-4.477-10-10z" fill="#0a66ea"/><path d="m173.557 277.255h-28.085c-5.523 0-10-4.477-10-10v-97.255c0-5.523 4.477-10 10-10h28.085c-5.523 0-10 4.477-10 10v97.255c0 5.523 4.477 10 10 10z" fill="#0956c6"/><path d="m365.876 152.5h-78c-9.649 0-17.5 7.851-17.5 17.5v159.276c0 9.649 7.851 17.5 17.5 17.5h78c9.649 0 17.5-7.851 17.5-17.5v-159.276c0-9.65-7.85-17.5-17.5-17.5zm2.5 176.776c0 1.379-1.122 2.5-2.5 2.5h-78c-1.378 0-2.5-1.121-2.5-2.5v-77.92h15c4.142 0 7.5-3.358 7.5-7.5s-3.358-7.5-7.5-7.5h-15v-66.356c0-1.379 1.122-2.5 2.5-2.5h78c1.378 0 2.5 1.121 2.5 2.5zm-164.344-176.776h-58.56c-9.649 0-17.5 7.851-17.5 17.5v97.256c0 9.649 7.851 17.5 17.5 17.5h58.56c9.649 0 17.5-7.851 17.5-17.5v-97.256c0-9.65-7.851-17.5-17.5-17.5zm-58.56 15h58.56c1.378 0 2.5 1.121 2.5 2.5v20.092h-63.56v-20.092c0-1.379 1.121-2.5 2.5-2.5zm58.56 102.255h-58.56c-1.378 0-2.5-1.121-2.5-2.5v-62.164h63.56v62.164c0 1.379-1.122 2.5-2.5 2.5z" fill="#ffc14f"/><path d="m462 337v4.276c0 5.523-4.477 10-10 10h-392c-5.523 0-10-4.477-10-10v-4.276c0-5.523 4.477-10 10-10h392c5.523 0 10 4.477 10 10z" fill="#ffd993"/><path d="m124 351.276h-64c-5.523 0-10-4.477-10-10v-4.276c0-5.523 4.477-10 10-10h64c-5.523 0-10 4.477-10 10v4.276c0 5.522 4.477 10 10 10z" fill="#ffcd71"/><path d="m282.872 121.656h-53.745c-5.523 0-10-4.477-10-10v-13.715c0-5.523 4.477-10 10-10h53.745c5.523 0 10 4.477 10 10v13.715c0 5.523-4.477 10-10 10z" fill="#ffc14f"/><path d="m278.766 110.105h-45.532c-1.105 0-2-.895-2-2v-6.614c0-1.105.895-2 2-2h45.532c1.105 0 2 .895 2 2v6.614c0 1.105-.895 2-2 2z" fill="#0a66ea"/></g></svg>